<svg width="27" height="25" viewBox="0 0 27 25" fill="none" xmlns="http://www.w3.org/2000/svg">
<path d="M27.0001 13.1493C26.905 13.5861 26.8423 14.0337 26.7098 14.4583C25.9222 16.9868 23.7015 18.6663 21.0596 18.7247C19.9175 18.7499 18.7748 18.734 17.6321 18.7268C17.2009 18.7239 16.8797 18.4544 16.7874 18.0543C16.7042 17.6932 16.8712 17.2809 17.2073 17.1223C17.3756 17.0431 17.5785 17.0113 17.7667 17.0092C18.8298 16.9991 19.8936 17.0099 20.9567 17.0027C23.083 16.9883 24.7999 15.5539 25.2289 13.442C25.7665 10.7952 23.7452 8.2191 21.1018 8.18378C20.7066 8.17873 20.3107 8.18378 19.9154 8.18234C19.294 8.17873 18.965 7.85294 18.9481 7.19845C18.9129 5.82174 18.4676 4.59927 17.5518 3.59737C15.9934 1.89269 14.0672 1.3139 11.891 2.00225C9.77177 2.67259 8.51842 4.21509 8.11614 6.45676C8.06894 6.72057 8.06612 6.99303 8.04922 7.26116C8.01188 7.85726 7.68568 8.16504 7.10023 8.18594C6.39994 8.21117 5.68273 8.17153 5.00358 8.31424C3.00556 8.73447 1.6247 10.6424 1.68811 12.7832C1.74799 14.805 3.27187 16.5954 5.23607 16.9292C5.58903 16.989 5.95257 16.9991 6.31187 17.0027C7.3137 17.0121 8.31552 16.9991 9.31735 17.0092C9.97396 17.0157 10.3896 17.5865 10.1733 18.1675C10.0585 18.4753 9.83799 18.7117 9.51391 18.711C7.93508 18.7052 6.34357 18.8962 4.77954 18.5949C1.77547 18.0132 -0.316953 15.0349 0.0395343 11.9225C0.403066 8.74744 2.93088 6.45676 6.08008 6.45964C6.32032 6.45964 6.40557 6.41351 6.45841 6.14105C7.04598 3.08993 8.7953 1.07315 11.7282 0.250726C15.7686 -0.881641 19.9338 1.94819 20.5495 6.18934C20.5911 6.47694 20.7235 6.45676 20.9144 6.45676C23.6064 6.4582 25.8926 8.13116 26.7049 10.7102C26.8387 11.134 26.9036 11.5802 27.0001 12.0162V13.1493Z" fill="#0CACE6"/>
<path d="M12.6561 21.9672V21.6753C12.6561 19.2837 12.6554 16.8914 12.6561 14.4998C12.6561 13.8677 13.107 13.4619 13.6734 13.5758C14.0686 13.6551 14.3399 14.0046 14.342 14.4559C14.3455 15.3641 14.3434 16.2723 14.3434 17.1805C14.3434 18.6819 14.3434 20.184 14.3434 21.6854V22.0581C14.776 21.6126 15.1585 21.2241 15.5347 20.8291C15.7214 20.6323 15.9377 20.5055 16.2082 20.5134C16.5302 20.5228 16.7852 20.6669 16.9374 20.9639C17.0931 21.2674 17.0769 21.5701 16.8916 21.857C16.8388 21.9384 16.7698 22.0105 16.7021 22.0797C15.8637 22.9389 15.0261 23.7981 14.1856 24.6551C13.7375 25.1121 13.2683 25.1157 12.8273 24.6659C11.9614 23.7836 11.097 22.9007 10.2367 22.0141C9.93028 21.6984 9.87462 21.3077 10.0662 20.9538C10.2529 20.61 10.6292 20.4298 11.0089 20.5473C11.1766 20.5992 11.3393 20.7152 11.4682 20.8414C11.8543 21.2183 12.2228 21.6141 12.5976 22.0026C12.6173 21.991 12.637 21.9788 12.6575 21.9672H12.6561Z" fill="#0CACE6"/>
</svg>
