<svg width="22" height="21" viewBox="0 0 22 21" fill="none" xmlns="http://www.w3.org/2000/svg">
<path d="M10.4615 0.496094C13.8953 0.565769 16.6673 1.57109 18.8807 3.8206C20.4942 5.46295 21.3734 7.43376 21.363 9.70319C21.3527 12.112 20.4218 14.1823 18.6532 15.9043C18.529 16.0237 18.4049 16.1531 18.2601 16.2527C18.0222 16.402 17.9602 16.5911 17.9602 16.8598C17.9809 17.9448 17.9602 19.0297 17.9602 20.1147C17.9602 20.473 17.8567 20.7617 17.5051 20.9209C17.1638 21.0702 16.8638 20.9707 16.5845 20.7517C15.7157 20.0749 14.8366 19.408 13.9781 18.7212C13.8333 18.6117 13.7195 18.5918 13.5437 18.6316C11.0096 19.2188 8.5273 19.0695 6.13805 18.0642C3.37645 16.8997 1.35956 15.0085 0.470055 12.1916C-0.419448 9.41453 0.139076 6.8266 1.95945 4.52731C3.66606 2.36738 5.99325 1.14308 8.75485 0.695171C9.39612 0.585681 10.0581 0.55582 10.4615 0.516005V0.496094Z" fill="white"/>
</svg>
