<!-- icon666.com - MILLIONS vector ICONS FREE --><svg version="1.1" id="Capa_1" xmlns="http://www.w3.org/2000/svg" xmlns:xlink="http://www.w3.org/1999/xlink" x="0px" y="0px" viewBox="0 0 281.119 281.119" style="enable-background:new 0 0 281.119 281.119;" xml:space="preserve"><g><path d="M277.377,134.07c-3.584-2.075-8.173-0.854-10.249,2.73c-12.654,21.845-30.807,40.164-52.495,52.975 c-22.355,13.206-47.969,20.186-74.074,20.186s-51.719-6.98-74.073-20.186c-20.432-12.07-37.727-29.027-50.242-49.216 c12.516-20.188,29.81-37.146,50.242-49.216c22.354-13.206,47.969-20.186,74.073-20.186c33.78,0,66.729,11.827,92.776,33.303 c3.195,2.636,7.923,2.18,10.558-1.016c2.635-3.196,2.181-7.923-1.016-10.558c-28.727-23.686-65.064-36.729-102.318-36.729 c-28.786,0-57.039,7.701-81.703,22.271C34.956,92.547,14.953,112.732,1.01,136.8c-1.347,2.325-1.347,5.193,0,7.519 c13.942,24.068,33.945,44.253,57.846,58.372c24.664,14.569,52.917,22.271,81.703,22.271c28.787,0,57.039-7.701,81.703-22.271 c23.9-14.119,43.903-34.303,57.845-58.372C282.183,140.735,280.961,136.146,277.377,134.07z"></path><path d="M140.559,181.612c-10.437,0-20.382-3.919-28.006-11.036c-3.028-2.827-7.773-2.664-10.601,0.364 c-2.827,3.028-2.664,7.774,0.364,10.601c10.411,9.719,23.993,15.071,38.242,15.071c30.908,0,56.053-25.145,56.053-56.053 s-25.145-56.053-56.053-56.053s-56.053,25.145-56.053,56.053c0,4.142,3.358,7.5,7.5,7.5s7.5-3.358,7.5-7.5 c0-22.637,18.416-41.053,41.053-41.053s41.053,18.416,41.053,41.053S163.195,181.612,140.559,181.612z"></path></g></svg>