<svg width="27" height="21" viewBox="0 0 27 21" fill="none" xmlns="http://www.w3.org/2000/svg">
<path d="M13.8576 3.59116C14.0955 3.32241 14.3127 3.07357 14.5403 2.84464C15.7607 1.58053 17.2398 0.734478 19.0292 0.525452C22.1217 0.167122 25.0385 1.78956 26.2072 4.66615C27.0657 6.78627 26.8899 8.86658 25.8349 10.8872C24.935 12.6091 23.6628 14.0524 22.2562 15.3862C20.2186 17.3172 17.9431 18.9794 15.5229 20.4426C14.4472 21.0896 13.2888 21.1095 12.2131 20.4526C9.25496 18.641 6.48302 16.6005 4.15583 14.0524C2.92501 12.7087 1.87002 11.2455 1.30115 9.50361C0.308216 6.47771 1.53904 2.93422 4.49716 1.31178C6.86572 0.0178113 9.85486 0.21689 12.1096 1.909C12.6682 2.32706 13.1233 2.85459 13.6301 3.34232C13.7025 3.41199 13.7749 3.49162 13.8576 3.59116Z" fill="white"/>
</svg>
