<svg width="61" height="61" viewBox="0 0 61 61" fill="none" xmlns="http://www.w3.org/2000/svg">
<rect width="61" height="60" transform="translate(0 0.5)" fill="white"/>
<path d="M55.2641 24.5441C53.4056 23.5961 51.0873 24.78 51.0873 26.6803V29.6014C51.0873 31.5275 49.4466 33.2133 47.2783 33.3376C44.902 33.4749 42.9225 31.802 42.9225 29.7258V20.336C42.9225 18.3328 41.093 16.7113 38.8376 16.7113C37.7051 16.7113 36.6839 17.1188 35.9434 17.7708C35.2078 18.4271 34.748 19.3322 34.748 20.336V40.1752C34.748 42.1012 33.1121 43.7827 30.9439 43.9071C28.5675 44.0444 26.5832 42.38 26.5832 40.2996L26.6074 24.5741C26.6074 22.5666 24.7779 20.9408 22.5129 20.9408C20.2575 20.9408 18.4232 22.5623 18.4184 24.5612L18.4087 28.0229C18.4087 29.9489 16.768 31.6304 14.5997 31.7548C12.2234 31.8921 10.2439 30.2191 10.2439 28.143V6.12039C10.2439 4.11716 8.41441 2.5 6.15904 2.5C5.03136 2.5 4.01015 2.90322 3.26966 3.55952C2.52916 4.21582 2.07422 5.11663 2.07422 6.12039V51.7613C2.07422 57.2091 8.729 60.615 14.0528 57.8911L55.2641 36.8036C60.5879 34.0797 60.5879 27.2679 55.2641 24.5441ZM18.4087 43.6197C18.4087 45.6187 16.5841 47.2401 14.3287 47.2401C12.0733 47.2401 10.2439 45.6187 10.2439 43.6197V36.9838C10.2439 34.9848 12.0733 33.3634 14.3287 33.3634C15.4564 33.3634 16.4776 33.7709 17.2132 34.4229C17.9489 35.0749 18.4087 35.9843 18.4087 36.9838V43.6197Z" stroke="#19242D" stroke-width="2" stroke-miterlimit="10"/>
<path d="M55.2641 24.5441C53.4056 23.5961 51.0873 24.78 51.0873 26.6803V29.6014C51.0873 31.5275 49.4466 33.2133 47.2783 33.3376C44.902 33.4749 42.9225 31.802 42.9225 29.7258V20.336C42.9225 18.3328 41.093 16.7113 38.8376 16.7113C37.7051 16.7113 36.6839 17.1188 35.9434 17.7708C35.2078 18.4271 34.748 19.3322 34.748 20.336V40.1752C34.748 42.1012 33.1121 43.7827 30.9439 43.9071C28.5675 44.0444 26.5832 42.38 26.5832 40.2996L26.6074 24.5741C26.6074 22.5666 24.7779 20.9408 22.5129 20.9408C20.2575 20.9408 18.4232 22.5623 18.4184 24.5612L18.4087 28.0229C18.4087 29.9489 16.768 31.6304 14.5997 31.7548C12.2234 31.8921 10.2439 30.2191 10.2439 28.143V6.12039C10.2439 4.11716 8.41441 2.5 6.15904 2.5C5.03136 2.5 4.01015 2.90322 3.26966 3.55952C2.52916 4.21582 2.07422 5.11663 2.07422 6.12039V51.7613C2.07422 57.209 8.729 60.615 14.0528 57.8911L55.2641 36.8036C60.5879 34.0797 60.5879 27.2679 55.2641 24.5441ZM18.4087 43.6197C18.4087 45.6187 16.5841 47.2401 14.3287 47.2401C12.0733 47.2401 10.2439 45.6187 10.2439 43.6197V36.9838C10.2439 34.9848 12.0733 33.3634 14.3287 33.3634C15.4564 33.3634 16.4776 33.7709 17.2132 34.4229C17.9489 35.0749 18.4087 35.9843 18.4087 36.9838V43.6197Z" fill="url(#paint0_linear_95_17)"/>
<path d="M22.5419 17.9122C20.2865 17.9122 18.457 16.2908 18.457 14.2918V11.9798C18.457 9.98083 20.2865 8.35938 22.5419 8.35938C24.7972 8.35938 26.6267 9.98083 26.6267 11.9798V14.2918C26.6267 16.2908 24.7972 17.9122 22.5419 17.9122Z" stroke="#19242D" stroke-width="2" stroke-miterlimit="10"/>
<path d="M22.5419 17.9122C20.2865 17.9122 18.457 16.2908 18.457 14.2918V11.9798C18.457 9.98083 20.2865 8.35938 22.5419 8.35938C24.7972 8.35938 26.6267 9.98083 26.6267 11.9798V14.2918C26.6267 16.2908 24.7972 17.9122 22.5419 17.9122Z" fill="url(#paint1_linear_95_17)"/>
<defs>
<linearGradient id="paint0_linear_95_17" x1="-3.3464" y1="5.20242" x2="27.7227" y2="47.0799" gradientUnits="userSpaceOnUse">
<stop stop-color="#19242D"/>
<stop offset="0.12" stop-color="#182832"/>
<stop offset="0.27" stop-color="#173342"/>
<stop offset="0.44" stop-color="#15465C"/>
<stop offset="0.62" stop-color="#136180"/>
<stop offset="0.81" stop-color="#0F84AF"/>
<stop offset="1" stop-color="#0CACE6"/>
</linearGradient>
<linearGradient id="paint1_linear_95_17" x1="5.23943" y1="4.45159" x2="53.1396" y2="35.0513" gradientUnits="userSpaceOnUse">
<stop stop-color="#19242D"/>
<stop offset="0.14" stop-color="#173241"/>
<stop offset="0.44" stop-color="#135975"/>
<stop offset="0.86" stop-color="#0E96C8"/>
<stop offset="1" stop-color="#0CACE6"/>
</linearGradient>
</defs>
</svg>
