<svg width="28" height="27" viewBox="0 0 28 27" fill="none" xmlns="http://www.w3.org/2000/svg">
<path d="M9.61173 22.2353C9.54384 22.3165 9.50462 22.3657 9.46238 22.4128C9.18632 22.7236 8.91101 22.7374 8.6357 22.4302C8.12053 21.8565 7.61743 21.2726 7.09396 20.6749C5.57485 21.5044 3.93808 22.2317 2.5472 23.3502C1.51988 24.1761 0.901374 25.194 0.900619 26.5153C0.900619 26.8297 0.732416 26.9949 0.453335 26.9971C0.163694 26.9985 0.000770588 26.821 1.63146e-05 26.4936C-0.00375505 24.9781 0.646429 23.7559 1.84799 22.8113C2.41445 22.3657 3.01183 21.9463 3.63939 21.5877C4.72102 20.969 5.8381 20.4076 6.93934 19.8193C7.02004 19.7759 7.09924 19.7222 7.16335 19.6585C8.02247 18.7935 8.87933 17.9278 9.96096 17.3084C10.0213 17.2736 10.0605 17.1606 10.0628 17.0831C10.0733 16.739 10.0749 16.3942 10.0628 16.0508C10.0598 15.9617 10.0168 15.853 9.95341 15.7907C9.08223 14.9344 8.60025 13.8883 8.33097 12.7379C8.29099 12.5662 8.22311 12.4604 8.04887 12.3757C7.18221 11.9555 6.86315 11.2057 6.78546 10.3306C6.74322 9.84811 6.79753 9.37505 6.98912 8.91793C7.03513 8.80781 7.00119 8.65786 6.97629 8.53108C6.67685 7.00758 6.65045 5.48408 7.07812 3.98231C7.55482 2.30885 8.67417 1.15337 10.3705 0.595546C12.757 -0.189748 15.182 -0.200615 17.5723 0.575987C19.6406 1.24754 20.7788 2.72178 21.1069 4.76833C21.3203 6.1013 21.3113 7.43862 20.9681 8.76073C20.9432 8.85635 20.9703 8.97444 21.005 9.07224C21.2751 9.84304 21.2456 10.6066 20.9356 11.3564C20.7342 11.8447 20.3737 12.2033 19.8842 12.4481C19.7801 12.5003 19.679 12.63 19.6534 12.7408C19.3992 13.8369 18.9655 14.8439 18.1682 15.6857C18.1124 15.7451 18.0739 15.8421 18.0717 15.9218C18.0626 16.3478 18.0619 16.7738 18.0717 17.199C18.0732 17.2744 18.1184 17.3823 18.1795 17.4178C19.1827 18.001 19.9837 18.8058 20.7946 19.6013C20.9296 19.7338 21.0918 19.8505 21.2615 19.9403C22.7746 20.7459 24.3382 21.4674 25.7253 22.4773C26.7375 23.2148 27.5672 24.0885 27.8508 25.3251C27.9413 25.7199 27.9723 26.1299 27.9987 26.5349C28.0175 26.8232 27.835 26.992 27.5657 26.9978C27.2942 27.0043 27.1041 26.8428 27.1056 26.5581C27.1147 25.1454 26.4268 24.0863 25.3089 23.2445C25.0132 23.0214 24.7153 22.7946 24.3932 22.6113C23.2701 21.9709 22.1349 21.3479 20.9771 20.7031C20.9032 20.8118 20.8557 20.8958 20.7946 20.9697C20.4325 21.4087 20.0826 21.8586 19.6994 22.2803C19.237 22.7895 18.9376 22.7859 18.4413 22.3005C18.2896 22.5302 18.1426 22.7577 17.9902 22.9822C17.0338 24.3956 15.8948 25.6547 14.5628 26.7515C14.1577 27.0855 13.9352 27.0826 13.5317 26.7443C11.9877 25.4497 10.6639 23.9769 9.61173 22.2361V22.2353ZM14.1125 2.59211C13.2541 2.66962 12.4734 2.70584 11.7041 2.81813C10.3102 3.02098 9.66 3.67225 9.47143 5.01754C9.40279 5.50943 9.39525 6.01002 9.36961 6.50699C9.31907 7.5031 9.00001 8.35866 8.11072 8.96792C7.90254 9.11063 7.63402 9.28087 7.64609 9.60253C7.65891 9.95461 7.63402 10.3132 7.69813 10.6566C7.79845 11.1956 8.08357 11.6114 8.69227 11.7461C8.91704 11.7961 9.04979 11.9475 9.09882 12.1823C9.18028 12.5713 9.25194 12.9697 9.39902 13.3377C9.70375 14.1006 9.98962 14.8909 10.8163 15.3133C10.8548 15.3329 10.8744 15.3836 10.9091 15.4133C11.0184 15.506 11.1233 15.6067 11.244 15.6828C11.3918 15.7762 11.5721 15.8269 11.7079 15.9334C12.6718 16.689 13.7889 16.7158 14.9233 16.5166C15.8224 16.3587 16.5412 15.7979 17.2352 15.2792C17.6606 14.9619 17.9849 14.4621 18.2218 13.9832C18.4925 13.4363 18.6321 12.8256 18.7973 12.2337C18.875 11.9562 18.9625 11.7722 19.3004 11.707C19.5184 11.665 19.7484 11.5056 19.8978 11.3368C20.4891 10.6689 20.379 9.37288 19.6926 8.80057C19.0922 8.29998 18.7603 7.67189 18.6841 6.92064C18.6162 6.24547 18.6087 5.56304 18.5114 4.89221C18.3628 3.86857 17.8092 3.07603 16.5835 2.87609C15.7432 2.73917 14.8886 2.67904 14.1117 2.59283L14.1125 2.59211ZM13.9767 22.1955C14.7521 21.3356 15.526 20.4967 16.2757 19.6389C16.5888 19.2803 16.8671 18.8906 17.1273 18.4943C17.2261 18.3436 17.2744 18.135 17.2691 17.9546C17.2578 17.5149 17.2012 17.0766 17.1635 16.6376C17.1582 16.5803 17.1537 16.5231 17.1447 16.421C15.0923 17.7822 13.0482 17.8394 10.9649 16.4731C10.9649 16.8491 10.9709 17.165 10.9611 17.4808C10.9581 17.5851 10.9483 17.7235 10.8812 17.7858C10.6428 18.0082 10.7062 18.2429 10.8495 18.4501C11.1557 18.8935 11.4801 19.3267 11.8217 19.7454C12.223 20.2373 12.7729 20.5974 13.1153 21.153C13.3514 21.537 13.6946 21.8601 13.9775 22.1955H13.9767ZM14.0431 25.9887C14.1261 25.9227 14.1992 25.8684 14.2679 25.8097C15.6014 24.6709 16.723 23.3647 17.6183 21.8796C17.7637 21.6386 17.7187 21.4331 17.4833 21.2631C16.9108 20.8495 16.5405 20.8553 15.9989 21.2936C15.3276 21.8362 14.8396 22.5229 14.387 23.2329C14.1494 23.6053 13.8342 23.6089 13.5566 23.2496C13.0256 22.5599 12.4863 21.8753 11.9266 21.2081C11.5751 20.7894 11.3164 20.7647 10.8306 21.0386C10.6858 21.1204 10.5591 21.232 10.4203 21.3247C10.2679 21.4261 10.2498 21.5326 10.3569 21.6855C10.7778 22.2846 11.1663 22.9069 11.6113 23.4886C12.315 24.4094 13.144 25.2229 14.0446 25.9894L14.0431 25.9887ZM7.79619 8.04208C8.18766 7.68276 8.36265 7.27852 8.40866 6.82864C8.47881 6.14477 8.49767 5.4551 8.58516 4.7734C8.73451 3.61357 9.42693 2.38347 11.063 2.0495C12.8966 1.67424 14.7408 1.68004 16.5835 1.97995C17.4102 2.1147 18.1448 2.42549 18.6781 3.09342C19.2099 3.75991 19.4165 4.52637 19.4776 5.34354C19.5176 5.876 19.538 6.41064 19.5983 6.94093C19.6473 7.36835 19.8155 7.75375 20.1889 8.07323C20.204 8.00586 20.2168 7.97398 20.2176 7.94138C20.2357 7.03004 20.3383 6.11072 20.2508 5.20807C20.0652 3.28322 19.0281 1.9191 17.073 1.33158C15.047 0.722324 12.9924 0.732466 10.9619 1.32071C9.56044 1.72712 8.53462 2.58414 8.05641 3.94464C7.87765 4.4532 7.77281 4.99653 7.71548 5.53189C7.62799 6.35123 7.65062 7.17637 7.79544 8.0428L7.79619 8.04208ZM19.0801 21.5783C19.412 21.1668 19.7198 20.7807 20.0328 20.3989C20.1459 20.2612 20.109 20.1656 19.986 20.0533C19.673 19.7672 19.3781 19.4622 19.0628 19.1789C18.7709 18.9167 18.4601 18.674 18.1893 18.4487C17.8062 19.0181 17.4434 19.5578 17.0715 20.1105C17.9095 20.3293 18.5076 20.8922 19.0801 21.5783ZM10.8465 20.0787C10.4942 19.523 10.151 18.9819 9.78068 18.3987C9.17727 18.9507 8.55348 19.5209 7.89349 20.1243C8.27968 20.601 8.63343 21.0378 9.00454 21.4964C9.56044 20.8864 10.0922 20.3387 10.8457 20.0794L10.8465 20.0787Z" fill="#17212A"/>
</svg>
