<svg width="40" height="41" viewBox="0 0 40 41" fill="none" xmlns="http://www.w3.org/2000/svg">
<g clip-path="url(#clip0_95_18)">
<rect width="40" height="40" transform="translate(0 0.5)" fill="white"/>
<path d="M21.1714 0.5C22.0897 0.679011 23.0207 0.779705 23.9135 1.03703C29.1807 2.52506 32.7007 7.06748 32.267 11.8001C31.8207 16.8236 27.6885 20.8066 22.1152 21.601C15.241 22.5855 8.85151 18.2781 8.13731 12.1917C7.47413 6.40737 12.2822 1.18248 18.8503 0.567129C18.9651 0.567129 19.0799 0.522376 19.1946 0.5C19.8578 0.5 20.5083 0.5 21.1714 0.5ZM20.2022 2.86071C15.0115 2.86071 10.7773 6.55282 10.7645 11.0952C10.7645 15.6488 14.9605 19.3633 20.1384 19.3857C25.3419 19.3969 29.5888 15.6936 29.6015 11.1288C29.6015 6.57519 25.3929 2.8719 20.2022 2.86071Z" fill="#17212A"/>
<path d="M20.1509 40.7775C13.9909 40.7775 7.84367 40.7775 1.68371 40.7775C0.484874 40.7775 -0.0125148 40.3412 0.000238757 39.3007C0.115021 31.9277 6.28774 25.5951 14.5903 24.3197C15.4193 24.1966 16.2738 24.1183 17.1283 24.1071C19.1051 24.0736 21.0691 24.04 23.0459 24.1071C29.9966 24.3197 35.0725 27.2062 38.3884 32.5206C39.7276 34.6576 40.3015 36.9959 40.3397 39.4238C40.3525 40.2853 39.8041 40.7664 38.8221 40.7664C32.5983 40.7664 26.3618 40.7664 20.1381 40.7664L20.1509 40.7775ZM37.636 38.4056C37.5212 37.8015 37.4319 37.2421 37.3044 36.6938C35.927 30.9095 29.8946 26.5461 23.1734 26.4678C21.1711 26.4454 19.1688 26.4343 17.1665 26.4678C16.261 26.4902 15.3428 26.5685 14.4628 26.7475C8.74918 27.9447 5.05065 31.0662 3.29066 35.9554C3.01008 36.7274 2.90805 37.5553 2.70399 38.3833H37.636V38.4056Z" fill="#17212A"/>
</g>
<defs>
<clipPath id="clip0_95_18">
<rect width="40" height="40" fill="white" transform="translate(0 0.5)"/>
</clipPath>
</defs>
</svg>
