<svg width="24" height="27" viewBox="0 0 24 27" fill="none" xmlns="http://www.w3.org/2000/svg">
<path d="M5.1249 26.9994C4.89103 26.9219 4.64507 26.869 4.42612 26.762C3.53897 26.3273 3.13023 25.5883 3.05275 24.6309C2.78546 21.3304 2.50894 18.0306 2.23526 14.7301C2.05968 12.6117 1.88125 10.4933 1.70354 8.37567C1.6943 8.26296 1.67652 8.15094 1.66017 8.01568C1.3673 8.01568 1.08438 8.02202 0.802168 8.01427C0.392714 8.0023 0.0315979 7.71698 0.020935 7.3267C0.00245267 6.63419 -0.029536 5.93253 0.0607431 5.24918C0.214288 4.09312 1.21447 3.28086 2.39805 3.27311C3.89014 3.26395 5.38294 3.27029 6.87574 3.27029C6.96318 3.27029 7.05061 3.27029 7.15013 3.27029C7.31292 2.76377 7.47215 2.27204 7.63067 1.7789C8.00032 0.627774 8.8569 0.00148913 10.0703 8.01614e-05C11.3584 -0.0013288 12.6465 -0.0013288 13.9346 8.01614e-05C15.1473 0.00148913 16.0046 0.627774 16.3742 1.77819C16.5328 2.27063 16.6913 2.76306 16.8541 3.26888C16.9628 3.26888 17.0588 3.26888 17.1555 3.26888C18.6035 3.26888 20.0515 3.26677 21.4995 3.26888C22.9674 3.2717 23.9925 4.28827 23.9975 5.74302C23.9989 6.21784 24.001 6.69196 23.9975 7.16678C23.9932 7.68035 23.6655 8.00723 23.1501 8.01357C22.885 8.01709 22.6198 8.01357 22.3369 8.01357C22.268 8.83077 22.2004 9.62613 22.1336 10.4222C21.9801 12.2517 21.8258 14.0806 21.673 15.9101C21.523 17.7044 21.3758 19.4995 21.2251 21.2938C21.1256 22.4843 21.0417 23.6763 20.9152 24.8641C20.7965 25.9736 20.0842 26.7134 18.9746 26.9557C18.9419 26.9627 18.912 26.9839 18.88 26.998H5.1249V26.9994ZM20.7268 8.02977H3.28377C3.28733 8.09458 3.28804 8.14531 3.2923 8.19603C3.42239 9.75435 3.55248 11.312 3.68186 12.8703C3.83185 14.673 3.97899 16.4765 4.1297 18.28C4.30101 20.3371 4.47944 22.3935 4.64436 24.4506C4.70123 25.1635 4.95856 25.4171 5.68505 25.4171C9.89547 25.4171 14.1066 25.4171 18.317 25.4171C19.0527 25.4171 19.3087 25.1642 19.3613 24.4266C19.4288 23.4805 19.5134 22.5358 19.5923 21.5904C19.7458 19.7524 19.9001 17.9144 20.0543 16.0764C20.188 14.4835 20.3238 12.8907 20.4567 11.2979C20.5477 10.2137 20.6358 9.12947 20.7261 8.02977H20.7268ZM22.3988 6.42496C22.3988 6.20657 22.3988 6.01425 22.3988 5.82192C22.3988 5.13646 22.1073 4.85115 21.4085 4.85115C15.138 4.85115 8.86686 4.85115 2.59637 4.85115C2.52529 4.85115 2.4542 4.84903 2.38312 4.85256C1.99925 4.87299 1.66728 5.13505 1.62392 5.50632C1.58909 5.80643 1.61681 6.11287 1.61681 6.42426H22.3988V6.42496ZM15.1764 3.2569C15.0293 2.82365 14.9106 2.40166 14.7421 2.00011C14.6248 1.71972 14.3611 1.58587 14.054 1.58446C12.687 1.58023 11.3207 1.58023 9.95376 1.58446C9.64525 1.58517 9.38223 1.71902 9.26423 1.99799C9.09504 2.39884 8.97633 2.82083 8.82847 3.2569H15.1771H15.1764Z" fill="#0CACE6"/>
<path d="M8.005 16.7439C8.005 18.7905 8.00571 20.8363 8.00358 22.8828C8.00358 23.0124 7.99647 23.1484 7.96021 23.2717C7.85216 23.6394 7.50171 23.8691 7.13064 23.8324C6.74962 23.7951 6.44253 23.4865 6.40841 23.104C6.4013 23.0258 6.40557 22.9462 6.40557 22.8673C6.40557 18.7658 6.40557 14.665 6.40557 10.5635C6.40557 10.4501 6.4013 10.3331 6.42618 10.2232C6.51504 9.82451 6.89677 9.5554 7.29201 9.60189C7.70502 9.6505 8.00144 9.98161 8.00286 10.4205C8.00642 12.1239 8.00429 13.8281 8.00429 15.5315C8.00429 15.9352 8.00429 16.3396 8.00429 16.7432L8.005 16.7439Z" fill="#0CACE6"/>
<path d="M12.8027 16.7156C12.8027 18.7706 12.8034 20.8255 12.8013 22.8805C12.8013 23.0108 12.7949 23.1461 12.7594 23.2694C12.652 23.6371 12.3023 23.8682 11.9319 23.833C11.5509 23.797 11.2424 23.4885 11.2076 23.1074C11.2005 23.0292 11.204 22.9496 11.204 22.8707C11.204 18.7692 11.204 14.6684 11.204 10.5669C11.204 10.4534 11.1997 10.3365 11.2239 10.2266C11.3114 9.82786 11.6924 9.55804 12.0876 9.60243C12.5006 9.64892 12.7999 9.98073 12.8006 10.4189C12.8049 11.973 12.802 13.5278 12.802 15.0819C12.802 15.6265 12.802 16.171 12.802 16.7156H12.8027Z" fill="#0CACE6"/>
<path d="M16.0006 16.6887C16.0006 14.6077 15.9985 12.526 16.0021 10.4449C16.0028 9.82849 16.5643 9.43116 17.1053 9.66223C17.4295 9.80102 17.5951 10.0589 17.5986 10.4083C17.6036 10.8296 17.6001 11.2515 17.6001 11.6728C17.6001 15.4052 17.6001 19.1375 17.5994 22.8699C17.5994 22.9833 17.6029 23.1002 17.578 23.2101C17.4877 23.6117 17.1089 23.878 16.7129 23.8315C16.2992 23.7829 16.0035 23.4511 16.0028 23.0122C15.9992 21.1855 16.0013 19.3587 16.0013 17.532C16.0013 17.2509 16.0013 16.9698 16.0013 16.6887H16.0006Z" fill="#0CACE6"/>
</svg>