<svg width="10" height="11" viewBox="0 0 10 11" fill="none" xmlns="http://www.w3.org/2000/svg">
<path d="M2.01724 10.6277C1.92518 10.5972 1.82837 10.5764 1.74219 10.5343C1.39299 10.3632 1.23211 10.0723 1.20161 9.69548C1.0964 8.39635 0.987557 7.0975 0.879832 5.79838C0.81072 4.96455 0.740489 4.13072 0.670538 3.29718C0.6669 3.25281 0.659905 3.20872 0.65347 3.15548C0.53819 3.15548 0.426828 3.15797 0.315746 3.15492C0.154578 3.15021 0.0124374 3.03791 0.00824033 2.88428C0.000965407 2.6117 -0.0116258 2.33552 0.0239094 2.06654C0.0843472 1.6115 0.478032 1.29178 0.943907 1.28873C1.53122 1.28512 2.11881 1.28762 2.7064 1.28762C2.74081 1.28762 2.77523 1.28762 2.8144 1.28762C2.87848 1.08824 2.94115 0.894692 3.00355 0.700586C3.14905 0.247486 3.48621 0.000970532 3.96384 0.000415942C4.47084 -0.000138647 4.97785 -0.000138647 5.48486 0.000415942C5.9622 0.000970532 6.29965 0.247486 6.44515 0.700309C6.50754 0.894138 6.56994 1.08797 6.63401 1.28706C6.67682 1.28706 6.7146 1.28706 6.75265 1.28706C7.32261 1.28706 7.89258 1.28623 8.46254 1.28706C9.04033 1.28817 9.44381 1.68831 9.44577 2.26092C9.44633 2.44782 9.44717 2.63444 9.44577 2.82134C9.44409 3.02349 9.3151 3.15215 9.11224 3.15465C9.00788 3.15603 8.90351 3.15465 8.79215 3.15465C8.76501 3.47631 8.73842 3.78937 8.71212 4.10272C8.65168 4.82285 8.59097 5.54271 8.53081 6.26285C8.47177 6.96912 8.41385 7.67566 8.35453 8.38193C8.31536 8.85056 8.28234 9.31975 8.23254 9.78727C8.18581 10.224 7.90545 10.5152 7.46867 10.6106C7.4558 10.6133 7.44405 10.6216 7.43146 10.6272H2.01724V10.6277ZM8.15839 3.16102H1.29254C1.29394 3.18654 1.29422 3.2065 1.2959 3.22647C1.34711 3.83984 1.39831 4.45294 1.44923 5.06632C1.50827 5.77592 1.56619 6.48579 1.62551 7.19567C1.69294 8.00537 1.76317 8.81479 1.82809 9.62449C1.85047 9.90512 1.95176 10.0049 2.23772 10.0049C3.89501 10.0049 5.55257 10.0049 7.20985 10.0049C7.49945 10.0049 7.60018 9.90539 7.62088 9.61507C7.64747 9.24266 7.68076 8.87081 7.71182 8.49868C7.77226 7.77521 7.83298 7.05175 7.89369 6.32829C7.9463 5.70132 7.99974 5.07436 8.05206 4.4474C8.08788 4.02064 8.12257 3.59388 8.15811 3.16102H8.15839ZM8.81649 2.52935C8.81649 2.44338 8.81649 2.36768 8.81649 2.29198C8.81649 2.02217 8.70177 1.90987 8.42672 1.90987C5.95857 1.90987 3.49013 1.90987 1.02197 1.90987C0.993992 1.90987 0.966012 1.90904 0.938031 1.91042C0.786937 1.91847 0.656268 2.02162 0.6392 2.16775C0.625489 2.28588 0.636402 2.4065 0.636402 2.52907H8.81649V2.52935ZM5.97367 1.28235C5.91576 1.11181 5.86903 0.945715 5.80271 0.787656C5.75655 0.677293 5.65274 0.624607 5.53186 0.624052C4.9938 0.622389 4.45601 0.622389 3.91795 0.624052C3.79652 0.62433 3.69299 0.677016 3.64654 0.786825C3.57995 0.944605 3.53322 1.11071 3.47502 1.28235H5.97395H5.97367Z" fill="#17212A"/>
<path d="M3.15154 6.59061C3.15154 7.39615 3.15182 8.20142 3.15098 9.00696C3.15098 9.05798 3.14819 9.1115 3.13392 9.16003C3.09139 9.30478 2.95344 9.39517 2.80738 9.38076C2.65741 9.36606 2.53653 9.2446 2.5231 9.09403C2.52031 9.06325 2.52198 9.03192 2.52198 9.00086C2.52198 7.38645 2.52198 5.77232 2.52198 4.1579C2.52198 4.11326 2.52031 4.06723 2.5301 4.02397C2.56507 3.86702 2.71533 3.76109 2.8709 3.7794C3.03347 3.79853 3.15015 3.92886 3.1507 4.10161C3.1521 4.77211 3.15126 5.44289 3.15126 6.11339C3.15126 6.27228 3.15126 6.43145 3.15126 6.59034L3.15154 6.59061Z" fill="#17212A"/>
<path d="M5.03979 6.58005C5.03979 7.38892 5.04007 8.19778 5.03923 9.00665C5.03923 9.05795 5.03671 9.11119 5.02272 9.15972C4.98047 9.30447 4.8428 9.39542 4.69703 9.38156C4.54705 9.36741 4.42562 9.24596 4.41191 9.09594C4.40911 9.06516 4.41051 9.03383 4.41051 9.00277C4.41051 7.38836 4.41051 5.77423 4.41051 4.15981C4.41051 4.11517 4.40883 4.06914 4.41834 4.02588C4.45276 3.86893 4.60273 3.76273 4.7583 3.7802C4.92087 3.7985 5.03867 3.9291 5.03895 4.10158C5.04063 4.7133 5.03951 5.32529 5.03951 5.937C5.03951 6.15135 5.03951 6.3657 5.03951 6.58005H5.03979Z" fill="#17212A"/>
<path d="M6.29908 6.56927C6.29908 5.75014 6.29824 4.93074 6.29964 4.11161C6.29992 3.86897 6.52096 3.71258 6.73389 3.80353C6.86149 3.85816 6.92668 3.95965 6.92808 4.09719C6.93004 4.26301 6.92864 4.42911 6.92864 4.59493C6.92864 6.06404 6.92864 7.53315 6.92836 9.00226C6.92836 9.0469 6.92976 9.09293 6.91996 9.13619C6.88443 9.29425 6.73529 9.39907 6.57944 9.38077C6.4166 9.36163 6.3002 9.23103 6.29992 9.05827C6.29852 8.33925 6.29936 7.62022 6.29936 6.90119C6.29936 6.79055 6.29936 6.67991 6.29936 6.56927H6.29908Z" fill="#17212A"/>
</svg>
