<svg width="61" height="61" viewBox="0 0 61 61" fill="none" xmlns="http://www.w3.org/2000/svg">
<rect width="60.3125" height="60.3125" rx="10" fill="white"/>
<path d="M30.956 9.24219C31.7926 9.4281 32.6408 9.53267 33.4542 9.79991C38.253 11.3453 41.4599 16.0627 41.0649 20.9777C40.6582 26.1948 36.8935 30.3313 31.8159 31.1562C25.5531 32.1787 19.7318 27.7053 19.0811 21.3844C18.4769 15.3772 22.8574 9.95097 28.8413 9.3119C28.9459 9.3119 29.0505 9.26543 29.155 9.24219C29.7593 9.24219 30.3518 9.24219 30.956 9.24219ZM30.073 11.6939C25.3439 11.6939 21.4863 15.5282 21.4747 20.2457C21.4747 24.9748 25.2974 28.8324 30.0149 28.8556C34.7556 28.8672 38.6248 25.0212 38.6364 20.2805C38.6364 15.5515 34.802 11.7055 30.073 11.6939Z" fill="#17212A"/>
<path d="M30.0287 51.0718C24.4165 51.0718 18.816 51.0718 13.2039 51.0718C12.1117 51.0718 11.6585 50.6186 11.6701 49.538C11.7747 41.8809 17.3985 35.3044 24.9626 33.9798C25.7179 33.852 26.4964 33.7706 27.2749 33.759C29.0759 33.7241 30.8653 33.6893 32.6663 33.759C38.9988 33.9798 43.6233 36.9776 46.6443 42.4967C47.8643 44.716 48.3872 47.1445 48.4221 49.6659C48.4337 50.5605 47.934 51.0602 47.0394 51.0602C41.3691 51.0602 35.6873 51.0602 30.0171 51.0602L30.0287 51.0718ZM45.9588 48.6085C45.8542 47.9811 45.7729 47.4001 45.6567 46.8307C44.4018 40.8235 38.9058 36.292 32.7824 36.2107C30.9582 36.1874 29.134 36.1758 27.3097 36.2107C26.4848 36.2339 25.6482 36.3152 24.8465 36.5012C19.641 37.7444 16.2714 40.9862 14.6679 46.0639C14.4123 46.8656 14.3193 47.7254 14.1334 48.5853H45.9588V48.6085Z" fill="#17212A"/>
</svg>
