<svg width="23" height="29" viewBox="0 0 23 29" fill="none" xmlns="http://www.w3.org/2000/svg">
<path d="M13.3528 0C13.8278 0.10724 14.3141 0.17974 14.7763 0.32776C17.3984 1.16906 19.2026 3.59555 19.2751 6.35885C19.2902 6.91469 19.2812 7.47203 19.2804 8.02862C19.2796 8.5618 19.5326 8.91977 20.019 9.12141C20.2018 9.19693 20.3853 9.26943 20.5658 9.34948C21.5581 9.79052 22.0339 10.7942 21.7431 11.8447C21.608 12.3348 21.4607 12.8219 21.3157 13.309C21.1964 13.7093 21.2606 14.0718 21.5234 14.3988C21.7356 14.6631 21.9478 14.9282 22.1562 15.1955C22.8352 16.0693 22.7846 17.1682 22.0309 17.9792C21.54 18.5071 21.5113 18.9776 21.9312 19.578C22.5791 20.5047 22.4961 21.5536 21.7046 22.3549C21.3406 22.7235 20.969 23.0845 20.6564 23.3948C20.8037 24.0708 21.0166 24.6863 21.0566 25.3123C21.1246 26.3741 21.0982 27.4428 21.0733 28.5084C21.0695 28.6745 20.8678 28.8361 20.7583 29H20.4759C20.1995 28.8739 20.1179 28.6541 20.1217 28.3581C20.1338 27.4616 20.133 26.5652 20.124 25.6688C20.1066 23.9529 19.084 22.4742 17.5049 21.8973C17.1681 21.7742 16.8078 21.7168 16.4552 21.6277C16.4083 21.7696 16.3796 21.8489 16.357 21.929C15.7347 24.1017 15.1169 26.276 14.4826 28.4449C14.4237 28.6458 14.2598 28.815 14.1442 28.9992H13.8051C13.4691 28.7289 13.4389 28.6307 13.5627 28.198C14.179 26.0419 14.7952 23.8857 15.4107 21.7296C15.4235 21.6858 15.4334 21.6413 15.4319 21.6473C15.0105 21.4086 14.5928 21.2138 14.225 20.9495C13.9796 20.7728 13.7885 20.5099 13.6043 20.2622C13.4177 20.0108 13.4706 19.7215 13.6934 19.5622C13.9146 19.4028 14.2099 19.4519 14.3821 19.7087C14.8307 20.377 15.4568 20.658 16.2505 20.6806C17.7103 20.7222 18.9232 21.315 19.8868 22.4168C19.942 22.4795 19.9978 22.5415 20.0296 22.577C20.4193 22.2092 20.8301 21.8739 21.1767 21.4811C21.5098 21.1035 21.469 20.5794 21.1359 20.1233C20.7213 19.5554 20.5469 18.9301 20.7682 18.2572C20.8739 17.937 21.071 17.6281 21.2923 17.3698C21.7575 16.826 21.799 16.3065 21.3565 15.7416C21.1646 15.4969 20.9706 15.2537 20.7765 15.0098C20.3014 14.4109 20.1806 13.744 20.3966 13.013C20.5303 12.5614 20.6662 12.1105 20.7961 11.6574C20.9909 10.9815 20.7432 10.4702 20.0938 10.1968C18.5977 9.56698 18.313 9.14406 18.3175 7.52716C18.3205 6.56352 18.3266 5.60516 17.9965 4.67625C17.2225 2.49445 15.16 0.987813 12.8475 0.970443C11.6143 0.96138 10.375 0.927396 9.14928 1.03161C6.69938 1.2393 4.55987 3.45281 4.36654 5.90648C4.31217 6.59146 4.32651 7.28323 4.31972 7.97122C4.3099 8.97792 3.86584 9.64779 2.94071 10.0322C2.78438 10.0971 2.6273 10.1606 2.47172 10.2278C1.91438 10.4695 1.65987 10.9792 1.81771 11.5653C1.94761 12.0471 2.09337 12.5251 2.23534 13.0039C2.45662 13.7463 2.3305 14.4199 1.84717 15.0256C1.64099 15.2839 1.43331 15.5399 1.23167 15.8012C0.849536 16.2974 0.878234 16.857 1.30493 17.3147C2.10847 18.1779 2.17795 19.1581 1.50279 20.115C1.10706 20.6753 1.15162 21.2025 1.63042 21.6934C1.93251 22.003 2.2293 22.3164 2.49438 22.5928C2.7655 22.3474 2.99811 22.1306 3.23675 21.9207C4.17472 21.0983 5.26977 20.6912 6.51511 20.6708C7.57618 20.6534 8.37972 19.9345 8.53303 18.8938C8.56852 18.6544 8.52019 18.517 8.28003 18.3848C6.41995 17.3638 5.31659 15.7884 4.94276 13.6995C4.87857 13.3423 5.04396 13.081 5.34454 13.0387C5.62472 12.9994 5.83467 13.1958 5.89433 13.5522C6.34217 16.2226 8.60175 18.1711 11.2691 18.1869C13.969 18.2035 16.2565 16.3012 16.7165 13.6164C16.8116 13.0636 16.7882 12.4889 16.7988 11.9232C16.8116 11.2534 16.8071 10.5827 16.795 9.91286C16.7935 9.82602 16.724 9.69763 16.65 9.66214C15.3654 9.04815 14.8949 8.65318 14.0015 7.37008C13.9479 7.46826 13.9177 7.56039 13.8572 7.62609C11.8008 9.88568 9.25576 11.2367 6.24625 11.7103C5.81956 11.7775 5.38532 11.8069 4.95334 11.8326C4.61878 11.853 4.39902 11.6627 4.38316 11.3795C4.3673 11.0895 4.5848 10.8924 4.93521 10.8705C8.50433 10.6432 11.4209 9.14708 13.6684 6.35357C14.0347 5.89818 14.4146 5.93971 14.651 6.46609C15.1826 7.64875 16.0609 8.44852 17.2919 8.85557C17.6809 8.98471 17.7632 9.09724 17.7632 9.51487C17.7639 10.5533 17.7662 11.5917 17.7632 12.6301C17.7556 16.0142 15.3216 18.7473 11.9647 19.1257C11.211 19.2102 10.4596 19.1476 9.72248 18.9565C9.66055 18.9406 9.59711 18.9278 9.55407 18.9187C9.42039 19.3031 9.33279 19.6943 9.1523 20.0364C8.97105 20.3801 8.6969 20.6746 8.44391 21.0174C8.51414 21.0733 8.61308 21.1549 8.71352 21.2334C9.51706 21.858 10.3244 22.478 11.1234 23.1094C11.2684 23.2242 11.3643 23.2242 11.5078 23.1094C11.9994 22.7136 12.5024 22.3315 13.0024 21.9448C13.1927 21.7976 13.4192 21.7402 13.5929 21.9161C13.7077 22.0324 13.7832 22.2386 13.7817 22.4033C13.7802 22.5218 13.6413 22.663 13.5302 22.7522C13.0386 23.1486 12.5409 23.5376 12.0327 23.9114C11.8522 24.0443 11.7925 24.1893 11.7948 24.4076C11.8053 25.3795 11.8001 26.3522 11.7985 27.3242C11.7985 27.4277 11.7985 27.5334 11.7797 27.6338C11.7351 27.8763 11.5342 28.0454 11.3024 28.0288C11.0607 28.0107 10.8961 27.8846 10.8508 27.6369C10.8319 27.5357 10.8326 27.4307 10.8319 27.3272C10.8304 26.3454 10.8266 25.3637 10.8349 24.3819C10.8364 24.1848 10.7843 24.0541 10.6219 23.931C9.63337 23.1766 8.65159 22.4116 7.67209 21.645C7.53464 21.5378 7.41305 21.5129 7.23558 21.5431C6.82852 21.611 6.41315 21.6224 6.00383 21.6798C3.97685 21.9622 2.52836 23.6146 2.50873 25.6673C2.50042 26.5637 2.49891 27.4609 2.51175 28.3573C2.51552 28.6534 2.43321 28.8724 2.15756 29H1.87511C1.62513 28.8505 1.53225 28.6337 1.53904 28.3399C1.56245 27.2653 1.52922 26.1876 1.5987 25.1167C1.6342 24.5639 1.84188 24.0224 1.98612 23.4152C1.68026 23.1094 1.31248 22.7446 0.948469 22.3768C0.129823 21.5506 0.0459939 20.5145 0.718885 19.5576C1.12217 18.9837 1.08667 18.5003 0.603338 17.9808C-0.152626 17.1682 -0.20247 16.0761 0.477973 15.1978C0.691697 14.9222 0.912217 14.6518 1.1267 14.3769C1.37063 14.065 1.43482 13.7176 1.32456 13.3377C1.18258 12.8491 1.03758 12.362 0.900134 11.8726C0.592009 10.7768 1.07157 9.7807 2.1198 9.32984C2.29274 9.25583 2.4687 9.18937 2.64089 9.1131C3.10988 8.90617 3.35003 8.55047 3.35456 8.02938C3.36136 7.30362 3.3455 6.57484 3.40214 5.85211C3.62115 3.05557 5.90641 0.58151 8.675 0.111771C8.87815 0.0770313 9.0798 0.0370052 9.28219 0C10.6385 0 11.9957 0 13.352 0L13.3528 0Z" fill="#17212A"/>
<path d="M8.4914 29.0004C8.37661 28.8162 8.21273 28.647 8.15382 28.4461C7.6939 26.8738 7.25513 25.2961 6.80955 23.7193C6.802 23.6921 6.79747 23.6641 6.78992 23.6369C6.6857 23.2503 6.79747 22.9958 7.10786 22.9157C7.3888 22.8432 7.60403 23.0003 7.709 23.3613C7.83512 23.7948 7.95973 24.2298 8.08208 24.6648C8.41361 25.8429 8.74288 27.0218 9.07367 28.1999C9.19525 28.6341 9.16656 28.7308 8.83049 29.0004H8.4914Z" fill="#17212A"/>
</svg>
